<svg width="65" height="64" viewBox="0 0 65 64" xmlns="http://www.w3.org/2000/svg">
    <circle cx="32.7922" cy="32" r="28" fill="black" fill-opacity="0.4" stroke="white" stroke-opacity="0.1" stroke-width="8"/>
    <path d="M32.7922 39.0006H34.7922V26.0006L41.1862 28.7406C41.3662 28.8178 41.5196 28.9461 41.6273 29.1096C41.735 29.2732 41.7923 29.4648 41.7922 29.6606V39.0006H43.7922V41.0006H21.7922V39.0006H23.7922V25.6506C23.7922 25.4571 23.8483 25.2678 23.9537 25.1055C24.0591 24.9433 24.2094 24.8151 24.3862 24.7366L32.0892 21.3126C32.1654 21.2787 32.2488 21.2645 32.332 21.2711C32.4151 21.2778 32.4952 21.3051 32.5651 21.3506C32.635 21.3961 32.6924 21.4584 32.732 21.5317C32.7717 21.6051 32.7924 21.6872 32.7922 21.7706V39.0006Z" fill="#F9FAFB"/>
</svg>